M48
;GenerationSoftware,Autodesk,EAGLE,9.6.2*%
;CreationDate,2022-07-30T20:08:13Z*%
FMAT,2
ICI,OFF
METRIC,TZ,000.000
T10C0.508
T9C0.600
T8C0.700
T7C0.723
T6C0.813
T5C0.914
T4C1.000
T3C1.016
T2C1.092
T1C3.556
%
G90
M71
T1
X81280Y30480
X66548Y67310
X15748Y67310
X66548Y3810
X15748Y3810
X81280Y42164
T2
X5588Y28956
X5588Y26416
X5588Y23876
X5588Y21336
X5588Y18796
X5588Y16256
X5588Y13716
X5588Y11176
X5588Y8636
X5588Y6096
X5588Y3556
X5588Y44196
X5588Y67056
X5588Y64516
X5588Y59436
X5588Y56896
X5588Y54356
X5588Y51816
X5588Y49276
X5588Y46736
X5588Y41656
X5588Y39116
X5588Y61976
X5588Y31496
T3
X32258Y28956
X34798Y28956
X37338Y28956
X39878Y28956
X42418Y28956
X44958Y28956
X47498Y28956
X50038Y28956
X52578Y28956
X55118Y28956
X57658Y28956
X24638Y44196
X27178Y44196
X29718Y44196
X32258Y44196
X34798Y44196
X37338Y44196
X39878Y44196
X42418Y44196
X44958Y44196
X50038Y44196
X52578Y44196
X55118Y44196
X57658Y44196
X47498Y44196
X24638Y34036
X24638Y36576
X24638Y39116
X24638Y41656
X44958Y31496
X47498Y31496
X50038Y31496
X55118Y31496
X24638Y31496
X24638Y28956
X27178Y28956
X29718Y28956
T4
X73533Y17653
X70993Y17653
X68453Y17653
T5
X30734Y60452
X30734Y64008
X33274Y64008
X33274Y60452
T6
X44958Y16256
X67818Y35306
X77978Y35306
X67818Y37846
X27178Y54356
X37338Y54356
X77978Y61976
X67818Y61976
X77978Y59436
X67818Y59436
X67818Y56896
X77978Y56896
X37338Y16256
X27178Y16256
X37338Y13716
X27178Y13716
X55118Y13716
X44958Y13716
X67818Y51816
X77978Y51816
X37338Y11176
X27178Y11176
X44958Y11176
X55118Y11176
X77978Y54356
X67818Y54356
X67818Y32512
X77978Y32512
X77978Y37846
X19558Y11176
X19558Y13716
X19558Y16256
X19558Y18796
X19558Y21336
X19558Y23876
X19558Y26416
X11938Y26416
X11938Y23876
X11938Y21336
X11938Y18796
X11938Y16256
X11938Y13716
X11938Y11176
X11938Y8636
X19558Y8636
X68453Y21463
X65913Y21463
X73533Y21463
X76073Y21463
X62738Y28956
X62738Y26416
X21336Y39116
X21336Y36576
X42418Y16256
X39878Y16256
X39878Y11176
X42418Y11176
X42418Y13716
X39878Y13716
X67818Y44196
X19558Y44196
X19558Y46736
X19558Y49276
X19558Y51816
X19558Y54356
X19558Y56896
X19558Y59436
X19558Y61976
X11938Y61976
X11938Y59436
X11938Y56896
X11938Y54356
X11938Y51816
X11938Y49276
X11938Y46736
X11938Y44196
X52578Y56896
X52578Y59436
X69723Y45466
X67818Y46736
X37338Y56896
X27178Y56896
X76454Y44196
X78359Y45466
X76454Y46736
X55118Y16256
T7
X48641Y51816
X40767Y51816
X40767Y54356
X40767Y56896
X40767Y59436
X48641Y59436
X48641Y56896
X48641Y54356
T8
X60178Y54356
X65933Y26416
X57678Y54356
X68433Y26416
T9
X88138Y40386
X85598Y40386
X85598Y44196
X85598Y51816
X88138Y51816
X85598Y32766
X85598Y21336
X88138Y21336
X88138Y28956
X85598Y28956
X88138Y44196
X88138Y32766
T10
X3200Y47396
X31394Y22708
X31394Y25146
X14021Y12802
X10668Y37948
X9449Y55321
X32461Y5334
X15392Y16002
X77114Y40081
X35662Y53340
X52121Y41758
X13716Y32461
X23927Y19507
X50292Y65227
X12802Y34442
X9296Y16002
X22708Y18593
X61112Y30175
X13716Y39624
X13716Y7163
X15697Y26975
M30