G04 EAGLE Gerber RS-274X export*
G75*
%MOMM*%
%FSLAX34Y34*%
%LPD*%
%INBottom Copper*%
%IPPOS*%
%AMOC8*
5,1,8,0,0,1.08239X$1,22.5*%
G01*
%ADD10C,1.879600*%
%ADD11C,1.651000*%
%ADD12R,1.651000X1.651000*%
%ADD13P,1.429621X8X292.500000*%
%ADD14P,1.429621X8X202.500000*%
%ADD15P,1.429621X8X22.500000*%
%ADD16C,1.320800*%
%ADD17C,1.930400*%
%ADD18P,1.732040X8X202.500000*%
%ADD19P,1.732040X8X22.500000*%
%ADD20P,1.732040X8X292.500000*%
%ADD21C,1.108000*%
%ADD22P,1.732040X8X112.500000*%
%ADD23C,1.422400*%
%ADD24C,1.323000*%
%ADD25R,1.879600X1.879600*%
%ADD26C,0.508000*%
%ADD27C,0.304800*%
%ADD28C,0.914400*%


D10*
X246380Y289560D03*
X271780Y289560D03*
X297180Y289560D03*
X322580Y289560D03*
X347980Y289560D03*
X373380Y289560D03*
X398780Y289560D03*
X424180Y289560D03*
X449580Y289560D03*
X474980Y289560D03*
X500380Y289560D03*
X525780Y289560D03*
X551180Y289560D03*
X576580Y289560D03*
X246380Y441960D03*
X271780Y441960D03*
X297180Y441960D03*
X322580Y441960D03*
X347980Y441960D03*
X373380Y441960D03*
X398780Y441960D03*
X424180Y441960D03*
X449580Y441960D03*
X474980Y441960D03*
X500380Y441960D03*
X525780Y441960D03*
X551180Y441960D03*
X576580Y441960D03*
X246380Y314960D03*
X246380Y340360D03*
X246380Y365760D03*
X246380Y391160D03*
X246380Y416560D03*
X449580Y314960D03*
X474980Y314960D03*
X500380Y314960D03*
X551180Y314960D03*
D11*
X576780Y543560D03*
D12*
X601780Y543560D03*
D13*
X678180Y441960D03*
X697230Y454660D03*
X678180Y467360D03*
X764540Y441960D03*
X783590Y454660D03*
X764540Y467360D03*
D14*
X551180Y162560D03*
X449580Y162560D03*
D15*
X678180Y353060D03*
X779780Y353060D03*
X678180Y378460D03*
X779780Y378460D03*
X271780Y543560D03*
X373380Y543560D03*
D14*
X779780Y619760D03*
X678180Y619760D03*
X779780Y594360D03*
X678180Y594360D03*
D15*
X678180Y568960D03*
X779780Y568960D03*
D14*
X373380Y162560D03*
X271780Y162560D03*
X373380Y137160D03*
X271780Y137160D03*
X551180Y137160D03*
X449580Y137160D03*
D15*
X678180Y518160D03*
X779780Y518160D03*
D14*
X373380Y111760D03*
X271780Y111760D03*
D15*
X449580Y111760D03*
X551180Y111760D03*
D14*
X779780Y543560D03*
X678180Y543560D03*
D15*
X678180Y325120D03*
X779780Y325120D03*
D16*
X202184Y86360D02*
X188976Y86360D01*
X188976Y111760D02*
X202184Y111760D01*
X202184Y137160D02*
X188976Y137160D01*
X188976Y162560D02*
X202184Y162560D01*
X202184Y187960D02*
X188976Y187960D01*
X188976Y213360D02*
X202184Y213360D01*
X202184Y238760D02*
X188976Y238760D01*
X188976Y264160D02*
X202184Y264160D01*
X125984Y264160D02*
X112776Y264160D01*
X112776Y238760D02*
X125984Y238760D01*
X125984Y213360D02*
X112776Y213360D01*
X112776Y187960D02*
X125984Y187960D01*
X125984Y162560D02*
X112776Y162560D01*
X112776Y137160D02*
X125984Y137160D01*
X125984Y111760D02*
X112776Y111760D01*
X112776Y86360D02*
X125984Y86360D01*
D17*
X55880Y391160D03*
X55880Y416560D03*
X55880Y441960D03*
X55880Y467360D03*
X55880Y492760D03*
X55880Y518160D03*
X55880Y543560D03*
X55880Y568960D03*
X55880Y594360D03*
X55880Y619760D03*
X55880Y645160D03*
X55880Y670560D03*
D18*
X684530Y214630D03*
X659130Y214630D03*
D19*
X735330Y214630D03*
X760730Y214630D03*
D20*
X627380Y289560D03*
X627380Y264160D03*
X213360Y391160D03*
X213360Y365760D03*
D18*
X424180Y162560D03*
X398780Y162560D03*
D19*
X398780Y111760D03*
X424180Y111760D03*
D18*
X424180Y137160D03*
X398780Y137160D03*
D21*
X855980Y207820D02*
X855980Y218900D01*
X881380Y218900D02*
X881380Y207820D01*
X881380Y284020D02*
X881380Y295100D01*
X855980Y295100D02*
X855980Y284020D01*
X855980Y322120D02*
X855980Y333200D01*
X881380Y333200D02*
X881380Y322120D01*
X881380Y398320D02*
X881380Y409400D01*
X855980Y409400D02*
X855980Y398320D01*
X855980Y436420D02*
X855980Y447500D01*
X881380Y447500D02*
X881380Y436420D01*
X881380Y512620D02*
X881380Y523700D01*
X855980Y523700D02*
X855980Y512620D01*
D17*
X55880Y35560D03*
X55880Y60960D03*
X55880Y86360D03*
X55880Y111760D03*
X55880Y137160D03*
X55880Y162560D03*
X55880Y187960D03*
X55880Y213360D03*
X55880Y238760D03*
X55880Y264160D03*
X55880Y289560D03*
X55880Y314960D03*
D16*
X188976Y441960D02*
X202184Y441960D01*
X202184Y467360D02*
X188976Y467360D01*
X188976Y492760D02*
X202184Y492760D01*
X202184Y518160D02*
X188976Y518160D01*
X188976Y543560D02*
X202184Y543560D01*
X202184Y568960D02*
X188976Y568960D01*
X188976Y594360D02*
X202184Y594360D01*
X202184Y619760D02*
X188976Y619760D01*
X125984Y619760D02*
X112776Y619760D01*
X112776Y594360D02*
X125984Y594360D01*
X125984Y568960D02*
X112776Y568960D01*
X112776Y543560D02*
X125984Y543560D01*
X125984Y518160D02*
X112776Y518160D01*
X112776Y492760D02*
X125984Y492760D01*
X125984Y467360D02*
X112776Y467360D01*
X112776Y441960D02*
X125984Y441960D01*
D22*
X525780Y568960D03*
X525780Y594360D03*
D23*
X307340Y632968D02*
X307340Y647192D01*
X332740Y647192D02*
X332740Y632968D01*
D12*
X684330Y264160D03*
D11*
X659330Y264160D03*
D14*
X373380Y568960D03*
X271780Y568960D03*
D24*
X479795Y518160D02*
X493025Y518160D01*
X493025Y543560D02*
X479795Y543560D01*
X479795Y568960D02*
X493025Y568960D01*
X493025Y594360D02*
X479795Y594360D01*
X414285Y594360D02*
X401055Y594360D01*
X401055Y568960D02*
X414285Y568960D01*
X414285Y543560D02*
X401055Y543560D01*
X401055Y518160D02*
X414285Y518160D01*
D25*
X735330Y176530D03*
D10*
X709930Y176530D03*
X684530Y176530D03*
D23*
X332740Y597408D02*
X332740Y611632D01*
X307340Y611632D02*
X307340Y597408D01*
D26*
X678180Y496824D02*
X678180Y467360D01*
X678180Y496824D02*
X699516Y518160D01*
X699516Y603504D01*
X684276Y618744D01*
X678180Y618744D01*
X678180Y619760D01*
X525780Y568452D02*
X487680Y568452D01*
X525780Y568452D02*
X525780Y568960D01*
X487680Y568452D02*
X486410Y568960D01*
X574548Y617220D02*
X676656Y617220D01*
X574548Y617220D02*
X527304Y569976D01*
X676656Y617220D02*
X678180Y619760D01*
X527304Y569976D02*
X525780Y568960D01*
X118872Y85344D02*
X105156Y85344D01*
X56388Y36576D01*
X118872Y85344D02*
X119380Y86360D01*
X56388Y36576D02*
X55880Y35560D01*
X576580Y289560D02*
X627380Y289560D01*
X684276Y213360D02*
X684276Y176784D01*
X684276Y213360D02*
X684530Y214630D01*
X684276Y176784D02*
X684530Y176530D01*
X684276Y216408D02*
X684276Y263652D01*
X684330Y264160D01*
X684276Y216408D02*
X684530Y214630D01*
X659892Y288036D02*
X629412Y288036D01*
X659892Y288036D02*
X682752Y265176D01*
X629412Y288036D02*
X627380Y289560D01*
X682752Y265176D02*
X684330Y264160D01*
X160020Y83820D02*
X120396Y83820D01*
X160020Y83820D02*
X178308Y65532D01*
X423672Y65532D01*
X574548Y216408D01*
X574548Y288036D01*
X119380Y86360D02*
X120396Y83820D01*
X574548Y288036D02*
X576580Y289560D01*
D27*
X156972Y269748D02*
X156972Y318516D01*
X141732Y333756D01*
X128016Y333756D02*
X53340Y333756D01*
X128016Y333756D02*
X141732Y333756D01*
X53340Y333756D02*
X41148Y321564D01*
X41148Y126492D01*
X55880Y111760D01*
X128016Y333756D02*
X128016Y344424D01*
D28*
X156972Y269748D03*
X128016Y344424D03*
D27*
X167640Y213360D02*
X195580Y213360D01*
X166878Y212598D02*
X128016Y173736D01*
X166878Y212598D02*
X167640Y213360D01*
X128016Y173736D02*
X106680Y173736D01*
X92964Y160020D01*
X166116Y320040D02*
X106680Y379476D01*
X166116Y320040D02*
X166116Y213360D01*
X166878Y212598D01*
D28*
X92964Y160020D03*
X106680Y379476D03*
D27*
X134112Y128016D02*
X140208Y128016D01*
X131826Y125730D02*
X129540Y123444D01*
X131826Y125730D02*
X134112Y128016D01*
X129540Y123444D02*
X108204Y123444D01*
X70104Y85344D01*
X70104Y74676D01*
X56388Y60960D01*
X55880Y60960D01*
X323088Y172212D02*
X323088Y289560D01*
X323088Y172212D02*
X275844Y124968D01*
X257556Y124968D01*
X207264Y74676D01*
X182880Y74676D01*
X131826Y125730D01*
X322580Y289560D02*
X323088Y289560D01*
D28*
X140208Y128016D03*
D27*
X196596Y163068D02*
X210312Y163068D01*
X214884Y167640D01*
X234696Y167640D01*
X313944Y246888D01*
X313944Y251460D01*
X196596Y163068D02*
X195580Y162560D01*
D28*
X313944Y251460D03*
D27*
X254508Y137160D02*
X195580Y137160D01*
X254508Y137160D02*
X268224Y150876D01*
X277368Y150876D01*
X313944Y187452D01*
X313944Y227076D01*
X32004Y35052D02*
X32004Y473964D01*
X32004Y35052D02*
X48768Y18288D01*
X83820Y18288D01*
X137160Y71628D01*
D28*
X313944Y227076D03*
X32004Y473964D03*
X137160Y71628D03*
D27*
X393192Y441960D02*
X398780Y441960D01*
X393192Y441960D02*
X377952Y457200D01*
X234696Y457200D01*
X173736Y396240D01*
X137160Y396240D01*
D28*
X137160Y396240D03*
D27*
X424180Y137160D02*
X449580Y137160D01*
X425196Y204216D02*
X425196Y289560D01*
X425196Y204216D02*
X461772Y167640D01*
X461772Y149352D01*
X449580Y137160D01*
X425196Y289560D02*
X424180Y289560D01*
X423672Y137160D02*
X423672Y129540D01*
X411480Y117348D01*
X411480Y105156D01*
X405384Y99060D01*
X393192Y99060D01*
X385572Y106680D01*
X385572Y124968D01*
X373380Y137160D01*
X423672Y137160D02*
X424180Y137160D01*
X425196Y112776D02*
X449580Y112776D01*
X425196Y112776D02*
X424180Y111760D01*
X449580Y188976D02*
X449580Y289560D01*
X449580Y188976D02*
X467868Y170688D01*
X467868Y131064D01*
X449580Y112776D01*
X449580Y111760D01*
X423672Y111252D02*
X423672Y108204D01*
X408432Y92964D01*
X390144Y92964D01*
X373380Y109728D01*
X373380Y111760D01*
X423672Y111252D02*
X424180Y111760D01*
X876300Y213360D02*
X881380Y213360D01*
X876300Y213360D02*
X859536Y196596D01*
X797052Y196596D01*
X688848Y304800D01*
X614172Y304800D01*
X611124Y301752D01*
D28*
X611124Y301752D03*
D27*
X854964Y219456D02*
X854964Y213360D01*
X854964Y219456D02*
X780288Y294132D01*
X780288Y324612D01*
X854964Y213360D02*
X855980Y213360D01*
X780288Y324612D02*
X779780Y325120D01*
D26*
X856488Y289560D02*
X856488Y263652D01*
X868680Y251460D02*
X894588Y225552D01*
X868680Y251460D02*
X856488Y263652D01*
X894588Y225552D02*
X894588Y201168D01*
X870204Y176784D01*
X736092Y176784D01*
X855980Y289560D02*
X856488Y289560D01*
X736092Y176784D02*
X735330Y176530D01*
X856488Y518160D02*
X876300Y537972D01*
X886968Y537972D01*
X900684Y524256D01*
X900684Y283464D01*
X868680Y251460D01*
X856488Y518160D02*
X855980Y518160D01*
X736092Y213360D02*
X736092Y178308D01*
X736092Y213360D02*
X735330Y214630D01*
X736092Y178308D02*
X735330Y176530D01*
X227076Y185928D02*
X227076Y274320D01*
X118872Y382524D01*
X118872Y391668D02*
X118872Y441960D01*
X118872Y391668D02*
X118872Y382524D01*
X118872Y441960D02*
X119380Y441960D01*
X118872Y391668D02*
X56388Y391668D01*
X55880Y391160D01*
X612648Y53340D02*
X734568Y175260D01*
X612648Y53340D02*
X324612Y53340D01*
X734568Y175260D02*
X735330Y176530D01*
D28*
X227076Y185928D03*
X324612Y53340D03*
D27*
X882396Y289560D02*
X882396Y307848D01*
X891540Y316992D01*
X891540Y452628D01*
X850392Y493776D01*
X847344Y493776D01*
X797052Y544068D01*
X797052Y568452D01*
X783336Y582168D01*
X734568Y582168D01*
X682752Y633984D01*
X502920Y633984D01*
X426720Y557784D01*
X426720Y513588D01*
X406908Y493776D01*
X196596Y493776D01*
X881380Y289560D02*
X882396Y289560D01*
X196596Y493776D02*
X195580Y492760D01*
X105156Y553212D02*
X94488Y553212D01*
X105156Y553212D02*
X106680Y554736D01*
X134112Y554736D01*
X195072Y493776D01*
X195580Y492760D01*
D28*
X94488Y553212D03*
D27*
X841248Y327660D02*
X855980Y327660D01*
X841248Y327660D02*
X816864Y352044D01*
X780288Y352044D01*
X779780Y353060D01*
X835152Y441960D02*
X855980Y441960D01*
X835152Y441960D02*
X826008Y451104D01*
X800100Y451104D01*
X771144Y422148D01*
X771144Y400812D01*
D28*
X771144Y400812D03*
D27*
X862584Y499872D02*
X880872Y518160D01*
X862584Y499872D02*
X850392Y499872D01*
X803148Y547116D01*
X803148Y612648D01*
X772668Y643128D01*
X362712Y643128D01*
X339852Y665988D01*
X193548Y665988D01*
X170688Y643128D01*
X57912Y643128D01*
X55880Y645160D01*
X880872Y518160D02*
X881380Y518160D01*
X341376Y518160D02*
X195580Y518160D01*
X341376Y518160D02*
X356616Y533400D01*
D28*
X356616Y533400D03*
D27*
X876300Y327660D02*
X881380Y327660D01*
X876300Y327660D02*
X859536Y310896D01*
X848868Y310896D01*
X822960Y336804D01*
X708660Y336804D01*
X682752Y310896D01*
X576072Y310896D01*
X557784Y329184D01*
X541020Y329184D01*
X501396Y289560D01*
X500380Y289560D01*
X876300Y441960D02*
X881380Y441960D01*
X876300Y441960D02*
X854964Y420624D01*
X851916Y420624D01*
X839724Y408432D01*
X839724Y405384D01*
X826008Y391668D01*
X547116Y391668D01*
X521208Y417576D01*
D28*
X521208Y417576D03*
D27*
X195580Y86360D02*
X131064Y150876D01*
X67056Y150876D01*
X56388Y161544D01*
X55880Y162560D01*
X271272Y213360D02*
X271272Y289560D01*
X271272Y213360D02*
X231648Y173736D01*
X153924Y173736D01*
X131064Y150876D01*
X271272Y289560D02*
X271780Y289560D01*
X137160Y324612D02*
X137160Y230124D01*
X120396Y213360D01*
X119380Y213360D01*
D28*
X137160Y324612D03*
D27*
X288036Y542544D02*
X373380Y542544D01*
X288036Y542544D02*
X277368Y531876D01*
X179832Y531876D01*
X129540Y582168D01*
X68580Y582168D01*
X56388Y594360D01*
X373380Y543560D02*
X373380Y542544D01*
X56388Y594360D02*
X55880Y594360D01*
X344424Y632460D02*
X406908Y569976D01*
X344424Y632460D02*
X344424Y652272D01*
X336804Y659892D01*
X327660Y659892D01*
X307848Y640080D01*
X406908Y569976D02*
X407670Y568960D01*
X307848Y640080D02*
X307340Y640080D01*
X96012Y620268D02*
X56388Y620268D01*
X96012Y620268D02*
X112776Y637032D01*
X303276Y637032D01*
X306324Y640080D01*
X56388Y620268D02*
X55880Y619760D01*
X306324Y640080D02*
X307340Y640080D01*
X406908Y521208D02*
X406908Y518160D01*
X406908Y521208D02*
X385572Y542544D01*
X385572Y548640D01*
X376428Y557784D01*
X367284Y557784D01*
X333756Y591312D01*
X333756Y603504D01*
X406908Y518160D02*
X407670Y518160D01*
X333756Y603504D02*
X332740Y604520D01*
D26*
X678180Y353060D02*
X678180Y325120D01*
X678180Y353060D02*
X678180Y378460D01*
X245364Y391668D02*
X213360Y391668D01*
X213360Y391160D01*
X245364Y391668D02*
X246380Y391160D01*
X259080Y379476D02*
X676656Y379476D01*
X259080Y379476D02*
X248412Y390144D01*
X676656Y379476D02*
X678180Y378460D01*
X248412Y390144D02*
X246380Y391160D01*
D27*
X486156Y452628D02*
X486156Y518160D01*
X486156Y452628D02*
X475488Y441960D01*
X486156Y518160D02*
X486410Y518160D01*
X475488Y441960D02*
X474980Y441960D01*
X449580Y557784D02*
X486156Y594360D01*
X449580Y557784D02*
X449580Y441960D01*
X486156Y594360D02*
X486410Y594360D01*
X239268Y275844D02*
X239268Y195072D01*
X239268Y275844D02*
X128016Y387096D01*
X128016Y425196D01*
X140208Y437388D01*
X140208Y522732D01*
X119380Y543560D01*
X118872Y544068D02*
X56388Y544068D01*
X55880Y543560D01*
X118872Y544068D02*
X119380Y543560D01*
D28*
X239268Y195072D03*
D27*
X763524Y441960D02*
X763524Y451104D01*
X752856Y461772D01*
X752856Y473964D01*
X790956Y512064D01*
X790956Y557784D01*
X779780Y568960D01*
X764540Y441960D02*
X763524Y441960D01*
X780288Y594360D02*
X780288Y618744D01*
X780288Y594360D02*
X779780Y594360D01*
X780288Y618744D02*
X779780Y619760D01*
X678180Y594360D02*
X678180Y586740D01*
X664464Y573024D01*
X664464Y461772D01*
X672084Y454152D01*
X696468Y454152D01*
X697230Y454660D01*
X702564Y441960D02*
X678180Y441960D01*
X702564Y441960D02*
X778764Y518160D01*
X779780Y518160D01*
X780288Y518160D02*
X780288Y542544D01*
X779780Y543560D01*
X779780Y518160D02*
X780288Y518160D01*
X678180Y568960D02*
X678180Y577596D01*
X690372Y589788D01*
X690372Y598932D01*
X682752Y606552D01*
X673608Y606552D01*
X615696Y548640D01*
X615696Y460248D01*
X582168Y426720D01*
X338328Y426720D01*
X323088Y441960D01*
X322580Y441960D01*
X54864Y441960D02*
X54864Y448056D01*
X41148Y461772D01*
X41148Y676656D01*
X67056Y702564D01*
X452628Y702564D01*
X502920Y652272D01*
X55880Y441960D02*
X54864Y441960D01*
D28*
X502920Y652272D03*
D27*
X320040Y591312D02*
X272796Y544068D01*
X320040Y591312D02*
X320040Y627888D01*
X332232Y640080D01*
X272796Y544068D02*
X271780Y543560D01*
X332232Y640080D02*
X332740Y640080D01*
X373380Y163068D02*
X381000Y163068D01*
X393192Y175260D01*
X399288Y175260D02*
X411480Y175260D01*
X399288Y175260D02*
X393192Y175260D01*
X411480Y175260D02*
X424180Y162560D01*
X373380Y162560D02*
X373380Y163068D01*
X425196Y163068D02*
X449580Y163068D01*
X449580Y162560D01*
X425196Y163068D02*
X424180Y162560D01*
X399288Y175260D02*
X399288Y289560D01*
X398780Y289560D01*
X118872Y188976D02*
X80772Y188976D01*
X56388Y213360D01*
X118872Y188976D02*
X119380Y187960D01*
X56388Y213360D02*
X55880Y213360D01*
X217932Y161544D02*
X271272Y161544D01*
X217932Y161544D02*
X207264Y150876D01*
X163068Y150876D01*
X153924Y160020D01*
X271272Y161544D02*
X271780Y162560D01*
D28*
X153924Y160020D03*
M02*
