G04 EAGLE Gerber RS-274X export*
G75*
%MOMM*%
%FSLAX34Y34*%
%LPD*%
%INSoldermask Top*%
%IPPOS*%
%AMOC8*
5,1,8,0,0,1.08239X$1,22.5*%
G01*
%ADD10C,3.759200*%
%ADD11C,2.082800*%
%ADD12C,1.854200*%
%ADD13R,1.854200X1.854200*%
%ADD14P,1.649562X8X292.500000*%
%ADD15P,1.649562X8X202.500000*%
%ADD16P,1.649562X8X22.500000*%
%ADD17C,1.524000*%
%ADD18C,2.133600*%
%ADD19P,1.951982X8X202.500000*%
%ADD20P,1.951982X8X22.500000*%
%ADD21P,1.951982X8X292.500000*%
%ADD22C,1.311200*%
%ADD23P,1.951982X8X112.500000*%
%ADD24C,1.625600*%
%ADD25C,1.526200*%
%ADD26R,2.082800X2.082800*%
%ADD27C,1.117600*%


D10*
X665480Y673100D03*
X157480Y673100D03*
X665480Y38100D03*
X157480Y38100D03*
X812800Y304800D03*
X812800Y421640D03*
D11*
X246380Y289560D03*
X271780Y289560D03*
X297180Y289560D03*
X322580Y289560D03*
X347980Y289560D03*
X373380Y289560D03*
X398780Y289560D03*
X424180Y289560D03*
X449580Y289560D03*
X474980Y289560D03*
X500380Y289560D03*
X525780Y289560D03*
X551180Y289560D03*
X576580Y289560D03*
X246380Y441960D03*
X271780Y441960D03*
X297180Y441960D03*
X322580Y441960D03*
X347980Y441960D03*
X373380Y441960D03*
X398780Y441960D03*
X424180Y441960D03*
X449580Y441960D03*
X474980Y441960D03*
X500380Y441960D03*
X525780Y441960D03*
X551180Y441960D03*
X576580Y441960D03*
X246380Y314960D03*
X246380Y340360D03*
X246380Y365760D03*
X246380Y391160D03*
X246380Y416560D03*
X449580Y314960D03*
X474980Y314960D03*
X500380Y314960D03*
X551180Y314960D03*
D12*
X576780Y543560D03*
D13*
X601780Y543560D03*
D14*
X678180Y441960D03*
X697230Y454660D03*
X678180Y467360D03*
X764540Y441960D03*
X783590Y454660D03*
X764540Y467360D03*
D15*
X551180Y162560D03*
X449580Y162560D03*
D16*
X678180Y353060D03*
X779780Y353060D03*
X678180Y378460D03*
X779780Y378460D03*
X271780Y543560D03*
X373380Y543560D03*
D15*
X779780Y619760D03*
X678180Y619760D03*
X779780Y594360D03*
X678180Y594360D03*
D16*
X678180Y568960D03*
X779780Y568960D03*
D15*
X373380Y162560D03*
X271780Y162560D03*
X373380Y137160D03*
X271780Y137160D03*
X551180Y137160D03*
X449580Y137160D03*
D16*
X678180Y518160D03*
X779780Y518160D03*
D15*
X373380Y111760D03*
X271780Y111760D03*
D16*
X449580Y111760D03*
X551180Y111760D03*
D15*
X779780Y543560D03*
X678180Y543560D03*
D16*
X678180Y325120D03*
X779780Y325120D03*
D17*
X202184Y86360D02*
X188976Y86360D01*
X188976Y111760D02*
X202184Y111760D01*
X202184Y137160D02*
X188976Y137160D01*
X188976Y162560D02*
X202184Y162560D01*
X202184Y187960D02*
X188976Y187960D01*
X188976Y213360D02*
X202184Y213360D01*
X202184Y238760D02*
X188976Y238760D01*
X188976Y264160D02*
X202184Y264160D01*
X125984Y264160D02*
X112776Y264160D01*
X112776Y238760D02*
X125984Y238760D01*
X125984Y213360D02*
X112776Y213360D01*
X112776Y187960D02*
X125984Y187960D01*
X125984Y162560D02*
X112776Y162560D01*
X112776Y137160D02*
X125984Y137160D01*
X125984Y111760D02*
X112776Y111760D01*
X112776Y86360D02*
X125984Y86360D01*
D18*
X55880Y391160D03*
X55880Y416560D03*
X55880Y441960D03*
X55880Y467360D03*
X55880Y492760D03*
X55880Y518160D03*
X55880Y543560D03*
X55880Y568960D03*
X55880Y594360D03*
X55880Y619760D03*
X55880Y645160D03*
X55880Y670560D03*
D19*
X684530Y214630D03*
X659130Y214630D03*
D20*
X735330Y214630D03*
X760730Y214630D03*
D21*
X627380Y289560D03*
X627380Y264160D03*
X213360Y391160D03*
X213360Y365760D03*
D19*
X424180Y162560D03*
X398780Y162560D03*
D20*
X398780Y111760D03*
X424180Y111760D03*
D19*
X424180Y137160D03*
X398780Y137160D03*
D22*
X855980Y207820D02*
X855980Y218900D01*
X881380Y218900D02*
X881380Y207820D01*
X881380Y284020D02*
X881380Y295100D01*
X855980Y295100D02*
X855980Y284020D01*
X855980Y322120D02*
X855980Y333200D01*
X881380Y333200D02*
X881380Y322120D01*
X881380Y398320D02*
X881380Y409400D01*
X855980Y409400D02*
X855980Y398320D01*
X855980Y436420D02*
X855980Y447500D01*
X881380Y447500D02*
X881380Y436420D01*
X881380Y512620D02*
X881380Y523700D01*
X855980Y523700D02*
X855980Y512620D01*
D18*
X55880Y35560D03*
X55880Y60960D03*
X55880Y86360D03*
X55880Y111760D03*
X55880Y137160D03*
X55880Y162560D03*
X55880Y187960D03*
X55880Y213360D03*
X55880Y238760D03*
X55880Y264160D03*
X55880Y289560D03*
X55880Y314960D03*
D17*
X188976Y441960D02*
X202184Y441960D01*
X202184Y467360D02*
X188976Y467360D01*
X188976Y492760D02*
X202184Y492760D01*
X202184Y518160D02*
X188976Y518160D01*
X188976Y543560D02*
X202184Y543560D01*
X202184Y568960D02*
X188976Y568960D01*
X188976Y594360D02*
X202184Y594360D01*
X202184Y619760D02*
X188976Y619760D01*
X125984Y619760D02*
X112776Y619760D01*
X112776Y594360D02*
X125984Y594360D01*
X125984Y568960D02*
X112776Y568960D01*
X112776Y543560D02*
X125984Y543560D01*
X125984Y518160D02*
X112776Y518160D01*
X112776Y492760D02*
X125984Y492760D01*
X125984Y467360D02*
X112776Y467360D01*
X112776Y441960D02*
X125984Y441960D01*
D23*
X525780Y568960D03*
X525780Y594360D03*
D24*
X307340Y632968D02*
X307340Y647192D01*
X332740Y647192D02*
X332740Y632968D01*
D13*
X684330Y264160D03*
D12*
X659330Y264160D03*
D15*
X373380Y568960D03*
X271780Y568960D03*
D25*
X479795Y518160D02*
X493025Y518160D01*
X493025Y543560D02*
X479795Y543560D01*
X479795Y568960D02*
X493025Y568960D01*
X493025Y594360D02*
X479795Y594360D01*
X414285Y594360D02*
X401055Y594360D01*
X401055Y568960D02*
X414285Y568960D01*
X414285Y543560D02*
X401055Y543560D01*
X401055Y518160D02*
X414285Y518160D01*
D26*
X735330Y176530D03*
D11*
X709930Y176530D03*
X684530Y176530D03*
D24*
X332740Y597408D02*
X332740Y611632D01*
X307340Y611632D02*
X307340Y597408D01*
D27*
X156972Y269748D03*
X128016Y344424D03*
X92964Y160020D03*
X106680Y379476D03*
X140208Y128016D03*
X313944Y251460D03*
X313944Y227076D03*
X32004Y473964D03*
X137160Y71628D03*
X137160Y396240D03*
X611124Y301752D03*
X227076Y185928D03*
X324612Y53340D03*
X94488Y553212D03*
X771144Y400812D03*
X356616Y533400D03*
X521208Y417576D03*
X137160Y324612D03*
X239268Y195072D03*
X502920Y652272D03*
X153924Y160020D03*
M02*
